<svg xmlns="http://www.w3.org/2000/svg" width="31.538" height="30" viewBox="0 0 31.538 30"><defs><style>.a{fill:#0c5caa;fill-rule:evenodd;}</style></defs><path class="a" d="M9.493.672A11.4,11.4,0,0,1,4.914,2.264c-2.754.417-3,.778-2.858,4.2.192,4.6,1.538,7.954,4.281,10.672l.9.9.6-.461.6-.461L7.381,16.058c-2.5-2.5-3.647-5.367-3.843-9.628-.091-1.965-.073-2.168.2-2.374a1.519,1.519,0,0,1,.773-.225,13.371,13.371,0,0,0,5.7-1.836c.936-.583,1.363-.618,2-.161a13.382,13.382,0,0,0,5.88,2c.955,0,1.087.272.981,2.016a16.963,16.963,0,0,1-2.327,7.885c-.578.915-.591.966-.232.869a4.692,4.692,0,0,1,.976-.106c.555,0,.627-.066,1.1-.969a20.549,20.549,0,0,0,2-8.38c0-2.118-.523-2.6-3.21-2.952A9.965,9.965,0,0,1,13.149.664C11.7-.223,11.054-.222,9.493.672Zm.295,3.9a5.712,5.712,0,0,0-2.353,1.64,5.245,5.245,0,0,0-.6,5.325,5.4,5.4,0,0,0,2.387,2.4,6.322,6.322,0,0,0,3.771.155,5.1,5.1,0,0,0,3.252-5.323c-.137-1.114-.437-1.6-.8-1.3-.2.169-.217.329-.081.826a4.39,4.39,0,0,1-1.287,4.195,3.791,3.791,0,0,1-2.784,1.062,4.129,4.129,0,0,1-3.93-2.855A4.18,4.18,0,0,1,13.173,5.6c.655.331.913.39,1.056.245.311-.315-.073-.729-1.052-1.136A5.185,5.185,0,0,0,9.787,4.572Zm3.878,2.716c-.927,1.077-1.708,1.988-1.736,2.026a3.524,3.524,0,0,1-.88-.64c-.747-.638-1.31-.8-1.31-.376A15.765,15.765,0,0,0,11.6,10.965c.455.382.872-.044,2.6-2.658C15.687,6.046,16,5.33,15.51,5.33A16.165,16.165,0,0,0,13.665,7.287Zm3.8,8.48A17.987,17.987,0,0,0,8.424,18.95a7.25,7.25,0,0,1-2.506,1.143c-2.408.653-4.2,1.723-5.041,3-.622.95-.631,1.059-.09,1.059.344,0,.413.07.37.375-.037.261-.22.425-.605.539L0,25.233l.1.891c.2,1.737.742,2.2,2.589,2.2h.962l0-.875A3.771,3.771,0,0,1,7.4,23.654a4.024,4.024,0,0,1,2.98,1.527,4.272,4.272,0,0,1,.772,2.724l-.1.413h9.586l-.1-.488a4.266,4.266,0,0,1,.777-2.72,4.054,4.054,0,0,1,2.97-1.452A3.728,3.728,0,0,1,27.994,27.4v.923H29.2c.945,0,1.263-.063,1.46-.292a4.886,4.886,0,0,0,.414-4.893,7.6,7.6,0,0,1-.541-1.479,9.113,9.113,0,0,0-1.781-3.366c-1.474-1.984-1.81-2.141-5.283-2.463A42.824,42.824,0,0,0,17.469,15.767Zm2.28,1.206c.179.115.2.486.106,1.822a7.362,7.362,0,0,1-.309,1.941c-.16.221-1.009.3-5.285.493-2.8.126-5.153.194-5.223.15-.254-.159.591-1.087,1.722-1.892A16.052,16.052,0,0,1,17.716,17C19.1,16.813,19.492,16.809,19.749,16.974Zm3.511.443a8.389,8.389,0,0,1,3.547,1.563c.833.615,1.426,1.5,1.175,1.755a18.22,18.22,0,0,1-3.5.229c-2.665.047-3.367.013-3.516-.169a10.806,10.806,0,0,1,.195-3.627C21.311,16.925,21.379,16.933,23.261,17.417Zm-3.522,4.772a.6.6,0,0,1-.121.96,5.726,5.726,0,0,1-1.655.172c-1.438,0-1.974-.173-1.974-.639,0-.571.349-.694,1.974-.694A4.155,4.155,0,0,1,19.738,22.189ZM6.189,25.057a2.836,2.836,0,0,0-1.476,2.851,3.005,3.005,0,0,0,1.419,1.833,2.987,2.987,0,0,0,2.548-.1,2.964,2.964,0,0,0,.9-1.089A2.59,2.59,0,0,0,6.189,25.057ZM23,25.2a2.7,2.7,0,0,0-.922,3.581A2.58,2.58,0,1,0,23,25.2Zm-14.9,1.455a1.1,1.1,0,0,1-.1,1.654.93.93,0,0,1-1.465-.064,1.092,1.092,0,0,1,.747-1.923A1.313,1.313,0,0,1,8.095,26.653Zm16.971-.042a1.163,1.163,0,0,1-1.281,1.9,1.159,1.159,0,0,1,.509-2.189A1.118,1.118,0,0,1,25.066,26.611Z"/></svg>