<svg xmlns="http://www.w3.org/2000/svg" xmlns:xlink="http://www.w3.org/1999/xlink" width="64" height="64.5" viewBox="0 0 64 64.5"><defs><style>.a{fill:#f1f2f6;}.b{fill:#ffa7a0;}.c{fill:#fff;}.d{fill:#fd6d64;}.e{fill:#40bfe8;}.f{fill:#f4ab28;}.g,.k{fill:none;}.g{stroke:#ffe564;stroke-width:2.5px;}.h{fill:#082b65;}.i{fill:#2756a4;}.j{stroke:none;}.l{filter:url(#a);}</style><filter id="a" x="35.5" y="40.5" width="24" height="24" filterUnits="userSpaceOnUse"><feOffset dy="1" input="SourceAlpha"/><feGaussianBlur stdDeviation="0.5" result="b"/><feFlood flood-color="#bc1010" flood-opacity="0.149"/><feComposite operator="in" in2="b"/><feComposite in="SourceGraphic"/></filter></defs><g transform="translate(-1559 -1327)"><circle class="a" cx="32" cy="32" r="32" transform="translate(1559 1327)"/><path class="b" d="M1488.162,1363.372s4.464-5.519,3.911-11.608-3.6-8.75-2.664-9.558,3.549-.481,5.112,1.217,3.514,8.334,4.361,8.341,16.624-10.775,17.273-11.108,2.754-1.918,3.584-1.072-.111,3.522-1.354,4.595-6.905,8.214-6.905,8.214,5.228,6.814,5.145,9.567-.117,7.018-4.661,10.05-11.732,4.27-11.732,4.27l-5.71,2.267-8.722-10.5Z" transform="translate(84 2)"/><path class="c" d="M1503.771,1354.228c2.864-3.919,8.194-2.436,8.194-2.436l-.521.63A9.6,9.6,0,0,0,1503.771,1354.228Z" transform="translate(84 2)"/><path class="d" d="M1499.882,1361.289l1.9,2.045a10.757,10.757,0,0,1,1.1-2.045c.571-.738,3.138-3.854,3.138-3.854s-2.876,2.657-3.846,3.291A4.334,4.334,0,0,1,1499.882,1361.289Z" transform="translate(84 2)"/><path class="d" d="M1500.151,1360.726l1.875,2.08a6.93,6.93,0,0,1,.909-1.725c.571-.738,4.67-4.728,4.67-4.728s-4.207,3.074-5.177,3.708A4.962,4.962,0,0,1,1500.151,1360.726Z" transform="translate(86 7)"/><path class="d" d="M1501.778,1363.331l.2.893s.44.277,2.7-.689a6.6,6.6,0,0,0,3.184-2.942,19.806,19.806,0,0,1-3.4,2.228A7.723,7.723,0,0,1,1501.778,1363.331Z" transform="translate(89 8)"/><path class="e" d="M1498.633,1339.836l1.075-.921L1495,1330.5l-3.045,2.651Z" transform="translate(84 2)"/><path class="e" d="M1492.728,1336.892l-.77-.631,3.373-5.765,2.182,1.815Z" transform="translate(-277.801 626.488) rotate(-21)"/><path class="e" d="M1493.388,1336.6l-.941-.789,4.336-7.27,2.551,1.813Z" transform="matrix(0.766, -0.643, 0.643, 0.766, -414.544, 1275.062)"/><g transform="translate(83 171)"><circle class="f" cx="10.5" cy="10.5" r="10.5" transform="translate(1513 1197)"/><g class="l" transform="matrix(1, 0, 0, 1, 1476, 1156)"><g class="g" transform="translate(37 41)"><circle class="j" cx="10.5" cy="10.5" r="10.5"/><circle class="k" cx="10.5" cy="10.5" r="9.25"/></g></g></g><g transform="translate(84 2)"><path class="h" d="M1479.108,1372.721l9.217-10.25s-.39,5.582,4.8,10.775,8.256,3.667,9.247,3.635a9.434,9.434,0,0,1-2.175,6.38,17.294,17.294,0,0,1-5.687,3.436,28.122,28.122,0,0,1-9.376-5.17A27.8,27.8,0,0,1,1479.108,1372.721Z" transform="translate(1 -1)"/><path class="i" d="M1479.108,1372.721l9.915-11.02a14.077,14.077,0,0,0,4.1,11.546c5.188,5.194,7.993,6.086,9.413,5.723s.47-4.82.769-3.225-.228,5.584-3.11,7.517-5.687,3.436-5.687,3.436a28.122,28.122,0,0,1-9.376-5.17A27.8,27.8,0,0,1,1479.108,1372.721Z"/></g></g></svg>