<svg xmlns="http://www.w3.org/2000/svg" width="32.001" height="32.001" viewBox="0 0 32.001 32.001"><defs><style>.a{fill:#0077b5;}</style></defs><g transform="translate(0.001 0)"><path class="a" d="M-14809-6464a15.9,15.9,0,0,1-11.317-4.688A15.9,15.9,0,0,1-14825-6480a15.892,15.892,0,0,1,4.686-11.312A15.9,15.9,0,0,1-14809-6496a15.894,15.894,0,0,1,11.313,4.686A15.892,15.892,0,0,1-14793-6480a15.9,15.9,0,0,1-4.686,11.314A15.89,15.89,0,0,1-14809-6464Zm4.427-15.865c.353,0,1.5.142,1.5,1.968v4.375a2.052,2.052,0,0,0,2.05,2.05,2.052,2.052,0,0,0,2.05-2.05v-4.375a6.592,6.592,0,0,0-1.076-4.047,3.176,3.176,0,0,0-2.611-1.281,4.069,4.069,0,0,0-3.048,1.061,2.46,2.46,0,0,0-.639,1.061,2.111,2.111,0,0,0-.621-1.5,2.106,2.106,0,0,0-1.5-.623,2.122,2.122,0,0,0-2.117,2.121v7.583a2.053,2.053,0,0,0,2.051,2.05h.134a2.052,2.052,0,0,0,2.05-2.05v-4.375C-14806.346-6479.183-14805.732-6479.863-14804.571-6479.863Zm-11.623-3.36a2.119,2.119,0,0,0-2.116,2.117v7.516a2.121,2.121,0,0,0,2.116,2.121,2.12,2.12,0,0,0,2.117-2.117v-7.516A2.122,2.122,0,0,0-14816.194-6483.223Zm.071-6.184a2.058,2.058,0,0,0-2.3,2.017,2,2,0,0,0,2.158,2.013,2.056,2.056,0,0,0,2.3-2.013A2,2,0,0,0-14816.123-6489.407Z" transform="translate(14825 6496)"/></g></svg>