<svg xmlns="http://www.w3.org/2000/svg" width="215.607" height="33.568" viewBox="0 0 215.607 33.568"><defs><style>.a{fill:#18478b;}.b{fill:#1cb2bb;}</style></defs><g transform="translate(-141.168 -33.534)"><path class="a" d="M12.369-15.3v2.814h-4.3V0H4.515V-12.484H.21V-15.3ZM26.4,0H23.646a1.272,1.272,0,0,1-.761-.215,1.112,1.112,0,0,1-.415-.551l-.9-2.667H15.75l-.9,2.667a1.182,1.182,0,0,1-.41.53A1.179,1.179,0,0,1,13.692,0H10.92l5.922-15.3h3.633ZM16.569-5.848h4.179l-1.407-4.19q-.136-.4-.32-.94t-.362-1.171q-.168.641-.347,1.186t-.336.945Zm20.5-9.45v2.814H32.76V0H29.211V-12.484H24.906V-15.3ZM51.093,0H48.342a1.272,1.272,0,0,1-.761-.215,1.112,1.112,0,0,1-.415-.551l-.9-2.667H40.446l-.9,2.667a1.182,1.182,0,0,1-.409.53A1.179,1.179,0,0,1,38.388,0H35.616l5.922-15.3h3.633ZM41.265-5.848h4.179l-1.407-4.19q-.136-.4-.32-.94t-.362-1.171q-.168.641-.347,1.186t-.336.945ZM70.623,0H67.872a1.272,1.272,0,0,1-.761-.215A1.112,1.112,0,0,1,66.7-.766l-.9-2.667H59.976l-.9,2.667a1.182,1.182,0,0,1-.409.53A1.179,1.179,0,0,1,57.918,0H55.146l5.922-15.3H64.7ZM60.795-5.848h4.179l-1.407-4.19q-.136-.4-.32-.94t-.362-1.171q-.168.641-.347,1.186t-.336.945ZM75.747,0h-3.57V-15.3h3.57ZM85.785-2.562a6.039,6.039,0,0,0,1.3-.126,6.374,6.374,0,0,0,1.071-.336V-5.345H86.646a.734.734,0,0,1-.525-.179.594.594,0,0,1-.189-.451V-7.927h5.439V-1.47a8.016,8.016,0,0,1-1.223.74,7.9,7.9,0,0,1-1.354.509A10.085,10.085,0,0,1,87.26.073a15.189,15.189,0,0,1-1.748.095A8.021,8.021,0,0,1,82.4-.425a7.553,7.553,0,0,1-2.473-1.638,7.539,7.539,0,0,1-1.638-2.478A8.06,8.06,0,0,1,77.7-7.654a8.476,8.476,0,0,1,.567-3.145,7.083,7.083,0,0,1,1.622-2.473,7.36,7.36,0,0,1,2.551-1.617,9.223,9.223,0,0,1,3.344-.578,9.74,9.74,0,0,1,1.8.158,8.833,8.833,0,0,1,1.549.43,7.127,7.127,0,0,1,1.3.651,6.984,6.984,0,0,1,1.05.819l-1.029,1.564a1.143,1.143,0,0,1-.352.346.835.835,0,0,1-.446.126,1.229,1.229,0,0,1-.651-.21q-.42-.252-.793-.436a4.837,4.837,0,0,0-.761-.3,4.989,4.989,0,0,0-.819-.168,8.036,8.036,0,0,0-.966-.052,4.407,4.407,0,0,0-1.8.352,3.85,3.85,0,0,0-1.36.992,4.488,4.488,0,0,0-.866,1.538,6.2,6.2,0,0,0-.3,2,6.438,6.438,0,0,0,.336,2.163A4.647,4.647,0,0,0,82.6-3.9a3.946,3.946,0,0,0,1.407.992A4.556,4.556,0,0,0,85.785-2.562ZM101.472,0H97.9V-15.3h3.57Zm4.7-15.3a3.012,3.012,0,0,1,.389.021.992.992,0,0,1,.284.079.946.946,0,0,1,.242.163,2.76,2.76,0,0,1,.262.284l7.266,9.188q-.042-.441-.063-.856t-.021-.782v-8.1h3.129V0h-1.848a1.7,1.7,0,0,1-.693-.126,1.483,1.483,0,0,1-.546-.462L107.362-9.7q.032.4.052.782t.021.719V0h-3.129V-15.3Zm22.533,3.108a1.333,1.333,0,0,1-.331.378.74.74,0,0,1-.446.126,1.092,1.092,0,0,1-.52-.152q-.278-.152-.63-.341a5.228,5.228,0,0,0-.8-.341,3.214,3.214,0,0,0-1.029-.152,2.214,2.214,0,0,0-1.486.425,1.447,1.447,0,0,0-.488,1.15,1.059,1.059,0,0,0,.294.766,2.535,2.535,0,0,0,.772.525,8.272,8.272,0,0,0,1.092.4q.614.184,1.255.41a11.221,11.221,0,0,1,1.255.53,4.184,4.184,0,0,1,1.092.777,3.626,3.626,0,0,1,.772,1.15A4.088,4.088,0,0,1,129.8-4.9a5.32,5.32,0,0,1-.367,1.985,4.647,4.647,0,0,1-1.066,1.612,4.947,4.947,0,0,1-1.722,1.082,6.442,6.442,0,0,1-2.326.394,7.455,7.455,0,0,1-1.454-.147,8.636,8.636,0,0,1-1.433-.415,8.311,8.311,0,0,1-1.3-.635,5.532,5.532,0,0,1-1.06-.819l1.05-1.659a.855.855,0,0,1,.326-.3.922.922,0,0,1,.451-.115,1.2,1.2,0,0,1,.635.2q.32.2.724.441a5.9,5.9,0,0,0,.929.441,3.484,3.484,0,0,0,1.239.2,2.359,2.359,0,0,0,1.5-.425,1.619,1.619,0,0,0,.535-1.349,1.275,1.275,0,0,0-.294-.872,2.271,2.271,0,0,0-.772-.556,7.111,7.111,0,0,0-1.087-.389Q123.7-6.4,123.06-6.61a9.141,9.141,0,0,1-1.25-.5,3.943,3.943,0,0,1-1.087-.787,3.685,3.685,0,0,1-.772-1.218,4.836,4.836,0,0,1-.294-1.8A4.273,4.273,0,0,1,120-12.6a4.337,4.337,0,0,1,1.019-1.459,5.008,5.008,0,0,1,1.648-1.024,6.088,6.088,0,0,1,2.237-.383,8.386,8.386,0,0,1,1.37.11,7.2,7.2,0,0,1,1.265.326,6.948,6.948,0,0,1,1.118.514,5.155,5.155,0,0,1,.929.677ZM137.928-2.8A3.264,3.264,0,0,0,139.2-3.04a2.58,2.58,0,0,0,.95-.677,2.993,2.993,0,0,0,.593-1.076,4.7,4.7,0,0,0,.2-1.444V-15.3H144.5v9.062a7.077,7.077,0,0,1-.457,2.583,5.794,5.794,0,0,1-1.307,2.026A5.9,5.9,0,0,1,140.668-.3a7.527,7.527,0,0,1-2.74.472A7.558,7.558,0,0,1,135.177-.3a5.9,5.9,0,0,1-2.068-1.323,5.733,5.733,0,0,1-1.3-2.026,7.15,7.15,0,0,1-.451-2.583V-15.3H134.9v9.051a4.7,4.7,0,0,0,.2,1.444,3.047,3.047,0,0,0,.593,1.082,2.553,2.553,0,0,0,.95.682A3.264,3.264,0,0,0,137.928-2.8ZM150.36-5.659V0h-3.549V-15.3h4.977a10.213,10.213,0,0,1,2.83.341,5.313,5.313,0,0,1,1.911.95,3.6,3.6,0,0,1,1.076,1.438,4.766,4.766,0,0,1,.336,1.806,4.848,4.848,0,0,1-.2,1.407,4.261,4.261,0,0,1-.593,1.223,4.591,4.591,0,0,1-.966,1,5.13,5.13,0,0,1-1.318.725,3.336,3.336,0,0,1,.667.441,2.624,2.624,0,0,1,.541.641L159.327,0h-3.213a1.363,1.363,0,0,1-1.281-.672l-2.541-4.441a1.07,1.07,0,0,0-.394-.42,1.318,1.318,0,0,0-.635-.126Zm0-2.447h1.428a3.651,3.651,0,0,0,1.234-.184,2.229,2.229,0,0,0,.835-.509,1.94,1.94,0,0,0,.473-.761,2.922,2.922,0,0,0,.147-.94,1.971,1.971,0,0,0-.656-1.575,3.055,3.055,0,0,0-2.032-.567H150.36ZM175.014,0h-2.751a1.272,1.272,0,0,1-.761-.215,1.112,1.112,0,0,1-.415-.551l-.9-2.667h-5.817l-.9,2.667a1.182,1.182,0,0,1-.41.53,1.179,1.179,0,0,1-.745.236h-2.772l5.922-15.3h3.633Zm-9.828-5.848h4.179l-1.407-4.19q-.137-.4-.32-.94t-.362-1.171q-.168.641-.347,1.186t-.336.945Zm12.936-9.45a3.012,3.012,0,0,1,.389.021.992.992,0,0,1,.283.079.946.946,0,0,1,.242.163,2.757,2.757,0,0,1,.262.284l7.266,9.188q-.042-.441-.063-.856T186.48-7.2v-8.1h3.129V0h-1.848a1.7,1.7,0,0,1-.693-.126,1.483,1.483,0,0,1-.546-.462L179.309-9.7q.031.4.052.782t.021.719V0h-3.129V-15.3Zm24.287,11.34a.713.713,0,0,1,.252.047.685.685,0,0,1,.242.163l1.407,1.48a5.841,5.841,0,0,1-2.315,1.822A8.1,8.1,0,0,1,198.7.168a7.842,7.842,0,0,1-3.124-.593,6.76,6.76,0,0,1-2.341-1.638,7.213,7.213,0,0,1-1.475-2.478,9.15,9.15,0,0,1-.514-3.113,8.208,8.208,0,0,1,.588-3.145,7.335,7.335,0,0,1,1.643-2.473A7.412,7.412,0,0,1,196-14.889a8.8,8.8,0,0,1,3.244-.578,8.264,8.264,0,0,1,1.622.152,7.929,7.929,0,0,1,1.423.42,6.694,6.694,0,0,1,1.218.64,5.871,5.871,0,0,1,.987.824l-1.2,1.606a1.525,1.525,0,0,1-.273.268.71.71,0,0,1-.441.121.788.788,0,0,1-.357-.084,3.943,3.943,0,0,1-.357-.2l-.415-.262a3.182,3.182,0,0,0-.535-.262,4.426,4.426,0,0,0-.725-.2,4.944,4.944,0,0,0-.971-.084,4.441,4.441,0,0,0-1.764.341,3.868,3.868,0,0,0-1.37.976,4.528,4.528,0,0,0-.893,1.538,6.034,6.034,0,0,0-.32,2.027,6.3,6.3,0,0,0,.32,2.089,4.588,4.588,0,0,0,.871,1.538,3.7,3.7,0,0,0,1.286.95,3.846,3.846,0,0,0,1.575.326,7.539,7.539,0,0,0,.882-.047,3.64,3.64,0,0,0,.74-.163,3.424,3.424,0,0,0,.651-.3,4.347,4.347,0,0,0,.625-.457,1.241,1.241,0,0,1,.273-.173A.715.715,0,0,1,202.409-3.959ZM215.775-15.3v2.73H209.5V-9H214.3v2.625H209.5V-2.73h6.279V0h-9.849V-15.3Z" transform="translate(141 49)"/><path class="b" d="M6.9-8.6v.978H4.122V0H2.958V-7.62H.168V-8.6Zm2.5,5.01V0H8.244V-8.6h2.43a5.31,5.31,0,0,1,1.41.165,2.691,2.691,0,0,1,.981.477,1.91,1.91,0,0,1,.573.753,2.517,2.517,0,0,1,.186.987,2.474,2.474,0,0,1-.144.852,2.25,2.25,0,0,1-.417.711,2.5,2.5,0,0,1-.666.537,3.3,3.3,0,0,1-.891.336,1.229,1.229,0,0,1,.384.366L14.6,0H13.566A.509.509,0,0,1,13.1-.246L10.866-3.318a.65.65,0,0,0-.222-.207.8.8,0,0,0-.36-.063Zm0-.846H10.62a2.965,2.965,0,0,0,.9-.123,1.825,1.825,0,0,0,.648-.348,1.443,1.443,0,0,0,.393-.537,1.754,1.754,0,0,0,.132-.69,1.37,1.37,0,0,0-.507-1.158,2.45,2.45,0,0,0-1.509-.39H9.4Zm9.54,3.51A2.4,2.4,0,0,0,19.9-1.1a2,2,0,0,0,.711-.5,2.2,2.2,0,0,0,.444-.774,3.059,3.059,0,0,0,.153-.99V-8.6h1.158v5.226a3.922,3.922,0,0,1-.237,1.38,3.206,3.206,0,0,1-.678,1.1,3.1,3.1,0,0,1-1.077.729A3.693,3.693,0,0,1,18.942.1a3.693,3.693,0,0,1-1.428-.264,3.131,3.131,0,0,1-1.08-.729,3.183,3.183,0,0,1-.681-1.1,3.922,3.922,0,0,1-.237-1.38V-8.6h1.158v5.22a3.059,3.059,0,0,0,.153.99,2.2,2.2,0,0,0,.444.774,2.027,2.027,0,0,0,.714.507A2.388,2.388,0,0,0,18.942-.924Zm9.822-6.33a.465.465,0,0,1-.114.135.253.253,0,0,1-.156.045.415.415,0,0,1-.237-.1,3.778,3.778,0,0,0-.342-.225,2.775,2.775,0,0,0-.5-.225,2.143,2.143,0,0,0-.7-.1,2.085,2.085,0,0,0-.69.105,1.467,1.467,0,0,0-.5.285,1.17,1.17,0,0,0-.3.423,1.343,1.343,0,0,0-.1.525.97.97,0,0,0,.177.6,1.525,1.525,0,0,0,.468.405,3.585,3.585,0,0,0,.66.291l.756.255q.387.132.756.3a2.659,2.659,0,0,1,.66.417,1.9,1.9,0,0,1,.468.618,2.057,2.057,0,0,1,.177.9,2.9,2.9,0,0,1-.192,1.059,2.441,2.441,0,0,1-.561.861,2.624,2.624,0,0,1-.906.576A3.332,3.332,0,0,1,26.358.1a3.728,3.728,0,0,1-1.521-.3,3.568,3.568,0,0,1-1.173-.819L24-1.578a.442.442,0,0,1,.117-.111.274.274,0,0,1,.153-.045.477.477,0,0,1,.288.135,4.8,4.8,0,0,0,.4.3,3.094,3.094,0,0,0,.588.3,2.321,2.321,0,0,0,.843.135,2.217,2.217,0,0,0,.738-.114,1.567,1.567,0,0,0,.549-.321,1.391,1.391,0,0,0,.345-.5,1.654,1.654,0,0,0,.12-.642,1.077,1.077,0,0,0-.177-.639A1.467,1.467,0,0,0,27.5-3.5a3.25,3.25,0,0,0-.657-.285l-.756-.24a7.624,7.624,0,0,1-.756-.285,2.457,2.457,0,0,1-.657-.42,1.93,1.93,0,0,1-.465-.645,2.3,2.3,0,0,1-.177-.957,2.277,2.277,0,0,1,.177-.882,2.273,2.273,0,0,1,.513-.756,2.486,2.486,0,0,1,.831-.528,3.044,3.044,0,0,1,1.137-.2,3.639,3.639,0,0,1,1.314.228,3.026,3.026,0,0,1,1.038.66ZM36.576-8.6v.978H33.8V0H32.634V-7.62h-2.79V-8.6Zm6.522,0v.948H38.97v2.856h3.342v.912H38.97V-.948H43.1V0H37.8V-8.6Zm9.126,4.3a4.842,4.842,0,0,1-.306,1.758,3.9,3.9,0,0,1-.864,1.356,3.852,3.852,0,0,1-1.338.873A4.654,4.654,0,0,1,47.988,0H44.772V-8.6h3.216a4.654,4.654,0,0,1,1.728.309,3.831,3.831,0,0,1,1.338.876,3.93,3.93,0,0,1,.864,1.359A4.842,4.842,0,0,1,52.224-4.3Zm-1.194,0a4.315,4.315,0,0,0-.216-1.416A2.984,2.984,0,0,0,50.2-6.768a2.61,2.61,0,0,0-.96-.66,3.318,3.318,0,0,0-1.254-.228H45.942V-.942h2.046a3.318,3.318,0,0,0,1.254-.228,2.627,2.627,0,0,0,.96-.657,2.953,2.953,0,0,0,.612-1.053A4.315,4.315,0,0,0,51.03-4.3ZM63.2,0h-.9a.387.387,0,0,1-.252-.078.48.48,0,0,1-.144-.2l-.8-2.076H57.24l-.8,2.076a.469.469,0,0,1-.144.192A.383.383,0,0,1,56.04,0h-.9l3.438-8.6H59.76ZM57.564-3.192h3.21l-1.35-3.5a6.537,6.537,0,0,1-.258-.81q-.066.246-.129.453t-.123.363Zm10.3,2.346A5.7,5.7,0,0,0,68.5-.879a4.062,4.062,0,0,0,.549-.1,3.74,3.74,0,0,0,.486-.159q.228-.093.456-.213v-1.9H68.664a.254.254,0,0,1-.183-.066.215.215,0,0,1-.069-.162v-.66h2.64v3.3a4.77,4.77,0,0,1-.675.408,4.6,4.6,0,0,1-.75.291,5.431,5.431,0,0,1-.855.174,8.005,8.005,0,0,1-.99.057,4.467,4.467,0,0,1-1.716-.321,3.951,3.951,0,0,1-1.344-.9,4.086,4.086,0,0,1-.879-1.389A4.877,4.877,0,0,1,63.528-4.3a5,5,0,0,1,.309-1.794,3.947,3.947,0,0,1,.882-1.389,3.942,3.942,0,0,1,1.386-.9,4.963,4.963,0,0,1,1.821-.318,5.624,5.624,0,0,1,.948.075,4.431,4.431,0,0,1,.813.216,3.787,3.787,0,0,1,.693.342,4.235,4.235,0,0,1,.594.453l-.33.528a.3.3,0,0,1-.264.162.425.425,0,0,1-.21-.066q-.15-.084-.336-.2a2.878,2.878,0,0,0-.453-.231,3.647,3.647,0,0,0-.63-.189,4.147,4.147,0,0,0-.861-.078,3.487,3.487,0,0,0-1.314.237,2.779,2.779,0,0,0-1,.678A3,3,0,0,0,64.938-5.7,4.2,4.2,0,0,0,64.716-4.3a4.264,4.264,0,0,0,.231,1.455A3.072,3.072,0,0,0,65.6-1.758a2.81,2.81,0,0,0,1,.678A3.35,3.35,0,0,0,67.866-.846ZM78.138-8.6v.948H74.01v2.856h3.342v.912H74.01V-.948h4.128V0h-5.3V-8.6Zm2.274,0a.522.522,0,0,1,.231.039.6.6,0,0,1,.171.159l4.98,6.48q-.018-.156-.024-.3t-.006-.285V-8.6h1.02V0H86.2a.5.5,0,0,1-.231-.048.583.583,0,0,1-.183-.162L80.808-6.684q.012.15.018.294t.006.264V0h-1.02V-8.6Zm14.328,0v.978H91.962V0H90.8V-7.62h-2.79V-8.6Zm4.818,5.382V0H98.4V-8.6h2.538a4.763,4.763,0,0,1,1.419.189,2.726,2.726,0,0,1,1,.537,2.164,2.164,0,0,1,.591.84,2.957,2.957,0,0,1,.195,1.1,2.8,2.8,0,0,1-.21,1.1,2.362,2.362,0,0,1-.615.858,2.857,2.857,0,0,1-1.005.561,4.32,4.32,0,0,1-1.374.2Zm0-.924h1.38a2.682,2.682,0,0,0,.879-.132,1.8,1.8,0,0,0,.639-.369,1.533,1.533,0,0,0,.39-.567,1.938,1.938,0,0,0,.132-.726,1.649,1.649,0,0,0-.507-1.284,2.213,2.213,0,0,0-1.533-.462h-1.38Zm7.332.552V0h-1.158V-8.6h2.43a5.31,5.31,0,0,1,1.41.165,2.691,2.691,0,0,1,.981.477,1.91,1.91,0,0,1,.573.753,2.517,2.517,0,0,1,.186.987,2.474,2.474,0,0,1-.144.852,2.25,2.25,0,0,1-.417.711,2.5,2.5,0,0,1-.666.537,3.3,3.3,0,0,1-.891.336,1.229,1.229,0,0,1,.384.366L112.086,0h-1.032a.509.509,0,0,1-.468-.246l-2.232-3.072a.65.65,0,0,0-.222-.207.8.8,0,0,0-.36-.063Zm0-.846h1.218a2.965,2.965,0,0,0,.9-.123,1.825,1.825,0,0,0,.648-.348,1.443,1.443,0,0,0,.393-.537,1.753,1.753,0,0,0,.132-.69,1.37,1.37,0,0,0-.507-1.158,2.45,2.45,0,0,0-1.509-.39H106.89Zm14.16.138a4.963,4.963,0,0,1-.306,1.773,4.06,4.06,0,0,1-.864,1.389,3.862,3.862,0,0,1-1.341.9,4.522,4.522,0,0,1-1.731.321,4.5,4.5,0,0,1-1.728-.321,3.868,3.868,0,0,1-1.338-.9,4.06,4.06,0,0,1-.864-1.389,4.963,4.963,0,0,1-.306-1.773,4.963,4.963,0,0,1,.306-1.773,4.093,4.093,0,0,1,.864-1.392,3.883,3.883,0,0,1,1.338-.909,4.463,4.463,0,0,1,1.728-.324,4.485,4.485,0,0,1,1.731.324,3.876,3.876,0,0,1,1.341.909,4.093,4.093,0,0,1,.864,1.392A4.963,4.963,0,0,1,121.05-4.3Zm-1.194,0a4.37,4.37,0,0,0-.216-1.422,3.008,3.008,0,0,0-.612-1.065,2.656,2.656,0,0,0-.96-.669,3.259,3.259,0,0,0-1.26-.234,3.243,3.243,0,0,0-1.254.234,2.684,2.684,0,0,0-.963.669,2.983,2.983,0,0,0-.615,1.065A4.369,4.369,0,0,0,113.76-4.3a4.342,4.342,0,0,0,.216,1.419,2.987,2.987,0,0,0,.615,1.062,2.652,2.652,0,0,0,.963.666,3.28,3.28,0,0,0,1.254.231,3.3,3.3,0,0,0,1.26-.231,2.624,2.624,0,0,0,.96-.666,3.012,3.012,0,0,0,.612-1.062A4.343,4.343,0,0,0,119.856-4.3Zm6.618,3.45a5.7,5.7,0,0,0,.639-.033,4.062,4.062,0,0,0,.549-.1,3.739,3.739,0,0,0,.486-.159q.228-.093.456-.213v-1.9h-1.332a.254.254,0,0,1-.183-.066.215.215,0,0,1-.069-.162v-.66h2.64v3.3a4.771,4.771,0,0,1-.675.408,4.6,4.6,0,0,1-.75.291,5.431,5.431,0,0,1-.855.174,8.005,8.005,0,0,1-.99.057,4.467,4.467,0,0,1-1.716-.321,3.951,3.951,0,0,1-1.344-.9,4.086,4.086,0,0,1-.879-1.389,4.877,4.877,0,0,1-.315-1.782,5,5,0,0,1,.309-1.794,3.947,3.947,0,0,1,.882-1.389,3.942,3.942,0,0,1,1.386-.9,4.963,4.963,0,0,1,1.821-.318,5.624,5.624,0,0,1,.948.075,4.431,4.431,0,0,1,.813.216,3.788,3.788,0,0,1,.693.342,4.235,4.235,0,0,1,.594.453l-.33.528a.3.3,0,0,1-.264.162.425.425,0,0,1-.21-.066q-.15-.084-.336-.2a2.878,2.878,0,0,0-.453-.231,3.647,3.647,0,0,0-.63-.189,4.147,4.147,0,0,0-.861-.078,3.487,3.487,0,0,0-1.314.237,2.779,2.779,0,0,0-1,.678,3,3,0,0,0-.636,1.068,4.2,4.2,0,0,0-.222,1.407,4.264,4.264,0,0,0,.231,1.455,3.072,3.072,0,0,0,.651,1.083,2.81,2.81,0,0,0,1,.678A3.35,3.35,0,0,0,126.474-.846Zm6.252-2.742V0h-1.158V-8.6H134a5.31,5.31,0,0,1,1.41.165,2.691,2.691,0,0,1,.981.477,1.91,1.91,0,0,1,.573.753,2.516,2.516,0,0,1,.186.987,2.474,2.474,0,0,1-.144.852,2.251,2.251,0,0,1-.417.711,2.5,2.5,0,0,1-.666.537,3.3,3.3,0,0,1-.891.336,1.229,1.229,0,0,1,.384.366L137.922,0H136.89a.509.509,0,0,1-.468-.246L134.19-3.318a.65.65,0,0,0-.222-.207.8.8,0,0,0-.36-.063Zm0-.846h1.218a2.965,2.965,0,0,0,.9-.123,1.825,1.825,0,0,0,.648-.348,1.443,1.443,0,0,0,.393-.537,1.754,1.754,0,0,0,.132-.69,1.37,1.37,0,0,0-.507-1.158A2.45,2.45,0,0,0,134-7.68h-1.272ZM146.25,0h-.9a.387.387,0,0,1-.252-.078.48.48,0,0,1-.144-.2l-.8-2.076h-3.858l-.8,2.076a.469.469,0,0,1-.144.192.383.383,0,0,1-.252.084h-.9l3.438-8.6h1.182Zm-5.634-3.192h3.21l-1.35-3.5a6.538,6.538,0,0,1-.258-.81q-.066.246-.129.453t-.123.363Zm10.95.084a2.233,2.233,0,0,1,.147.3q.063.159.123.321.06-.168.126-.321t.15-.309l2.91-5.286a.345.345,0,0,1,.162-.168.746.746,0,0,1,.24-.03h.858V0h-1.02V-6.318q0-.126.006-.27t.018-.294L152.34-1.506a.463.463,0,0,1-.42.27h-.168a.463.463,0,0,1-.42-.27L148.32-6.9q.018.156.027.306t.009.276V0h-1.02V-8.6h.858a.746.746,0,0,1,.24.03.345.345,0,0,1,.162.168Z" transform="translate(141 67)"/></g></svg>