<svg xmlns="http://www.w3.org/2000/svg" xmlns:xlink="http://www.w3.org/1999/xlink" width="65.5" height="64" viewBox="0 0 65.5 64"><defs><style>.a{fill:#f1f2f6;}.b{fill:#18478b;}.c{fill:#0c5caa;}.d{fill:#1cb4bd;}.e{fill:#1cb2bb;}.f{fill:#f4ab28;}.g,.h,.j{fill:none;}.g,.h{stroke:#ffe564;}.g{stroke-width:3px;}.h{stroke-width:1.5px;}.i{stroke:none;}.k{filter:url(#c);}.l{filter:url(#a);}</style><filter id="a" x="0" y="33.5" width="29" height="29" filterUnits="userSpaceOnUse"><feOffset dy="1" input="SourceAlpha"/><feGaussianBlur stdDeviation="0.5" result="b"/><feFlood flood-color="#bc1010" flood-opacity="0.149"/><feComposite operator="in" in2="b"/><feComposite in="SourceGraphic"/></filter><filter id="c" x="46" y="7.5" width="15" height="15" filterUnits="userSpaceOnUse"><feOffset dy="1" input="SourceAlpha"/><feGaussianBlur stdDeviation="0.5" result="d"/><feFlood flood-color="#bc1010" flood-opacity="0.149"/><feComposite operator="in" in2="d"/><feComposite in="SourceGraphic"/></filter></defs><g transform="translate(-1482.5 -1164)"><circle class="a" cx="32" cy="32" r="32" transform="translate(1484 1164)"/><path class="b" d="M4,0,26.732-8.539a4,4,0,0,1,4,4v30a4,4,0,0,1-4,4L4,38a4,4,0,0,1-4-4V4A4,4,0,0,1,4,0Z" transform="translate(1497 1188)"/><rect class="c" width="41" height="38" rx="4" transform="translate(1497 1188)"/><rect class="d" width="40" height="5" transform="translate(1497 1215)"/><path class="e" d="M0,0H5A2,2,0,0,1,7,2V8a2,2,0,0,1-2,2H0a0,0,0,0,1,0,0V0A0,0,0,0,1,0,0Z" transform="translate(1535 1202)"/><g transform="translate(-29 1)"><circle class="f" cx="13" cy="13" r="13" transform="translate(1513 1197)"/><g class="l" transform="matrix(1, 0, 0, 1, 1511.5, 1163)"><g class="g" transform="translate(1.5 34)"><circle class="i" cx="13" cy="13" r="13"/><circle class="j" cx="13" cy="13" r="11.5"/></g></g></g><g transform="translate(17 -25.342)"><circle class="f" cx="6" cy="6" r="6" transform="translate(1513 1197.342)"/><g class="k" transform="matrix(1, 0, 0, 1, 1465.5, 1189.34)"><g class="h" transform="translate(47.5 8)"><circle class="i" cx="6" cy="6" r="6"/><circle class="j" cx="6" cy="6" r="5.25"/></g></g></g></g></svg>