<svg xmlns="http://www.w3.org/2000/svg" width="23" height="30" viewBox="0 0 23 30"><defs><style>.a{fill:#0c5caa;fill-rule:evenodd;}</style></defs><path class="a" d="M11.143.042A5.34,5.34,0,0,0,9.465.561a5.442,5.442,0,0,0-.6,9.452,5.424,5.424,0,0,0,1.669.736,3.667,3.667,0,0,0,1.277.131,5.12,5.12,0,0,0,1.138-.071,5.548,5.548,0,0,0,3.86-3A5.462,5.462,0,0,0,12.833.083,5.972,5.972,0,0,0,11.143.042ZM10,11.217a17.537,17.537,0,0,0-4.279,2.506A22.4,22.4,0,0,0,3.48,15.886,16.437,16.437,0,0,0,.3,21.564,4.113,4.113,0,0,0,.021,23.4a2.157,2.157,0,0,0,.725,1.481c.473.473,1.121.669,2.588.781.737.056,7.315.056,7.608,0a2.059,2.059,0,0,0,1.6-1.348,2.027,2.027,0,0,0-.478-2.1,1.955,1.955,0,0,0-.876-.537c-.245-.086-.25-.09-.359-.357-.061-.149-.145-.367-.188-.485l-.077-.215.21-.285c.2-.274.266-.446,1.645-4.392.789-2.259,1.477-4.224,1.529-4.367l.094-.26-.218-.081c-.494-.184-.415-.222-1.215.578a9.277,9.277,0,0,1-.753.71,9.439,9.439,0,0,1-.731-.73c-.379-.4-.7-.728-.712-.726S10.212,11.139,10,11.217Zm4.555.932c-.05.312-.174,1.093-.275,1.735s-.44,2.79-.753,4.774l-.57,3.607.128.521a2.665,2.665,0,0,1-.151,2.043,2.943,2.943,0,0,1-1.123,1.135c-.59.3-.5.3-3.38.314l-2.585.017v1.446c0,.8.012,1.629.027,1.853L5.9,30H17.8l.027-.344c.015-.189.029-2.033.031-4.1l0-3.753.082.25a19.476,19.476,0,0,1,.47,2.09,29.951,29.951,0,0,1,.4,4.706c0,.39.013.807.027.928l.026.219h4.084l.029-.234c.031-.247,0-1.373-.068-2.622A24.746,24.746,0,0,0,21,18.318a14.855,14.855,0,0,0-3.291-4.5,12.666,12.666,0,0,0-2.721-2.052l-.341-.186Zm-5.78,5.592c1.777,4.541,1.7,4.371,2.061,4.459a2.021,2.021,0,0,1,.834.453,2.13,2.13,0,0,1,.256.413.982.982,0,0,1,.109.627,1.258,1.258,0,0,1-.117.573,1.653,1.653,0,0,1-.778.734l-.25.1H7.163c-3.807,0-4.174-.013-4.939-.169a1.938,1.938,0,0,1-1.011-.449,1.62,1.62,0,0,1-.592-1.549,3.242,3.242,0,0,1,.272-1.253,15.957,15.957,0,0,1,4.972-7.3A5.389,5.389,0,0,1,7.1,13.5C7.12,13.527,7.871,15.437,8.773,17.742Z"/></svg>