<svg xmlns="http://www.w3.org/2000/svg" width="64" height="64" viewBox="0 0 64 64"><defs><style>.a{fill:#f1f2f6;}.b{fill:#6bd4fb;}.c{fill:#21c1fc;}.d{fill:#fff;}.e{fill:#b1fbff;stroke:#0c5caa;stroke-width:2px;}.f{fill:#0c5caa;}.g{stroke:none;}.h{fill:none;}</style></defs><g transform="translate(-1459 -1163)"><circle class="a" cx="32" cy="32" r="32" transform="translate(1459 1163)"/><rect class="b" width="35" height="40" rx="5" transform="translate(1465 1179)"/><path class="c" d="M0,0H14a5,5,0,0,1,5,5V35a5,5,0,0,1-5,5H0a0,0,0,0,1,0,0V0A0,0,0,0,1,0,0Z" transform="translate(1481 1179)"/><rect class="d" width="30" height="4" rx="2" transform="translate(1470 1191)"/><rect class="d" width="30" height="4" rx="2" transform="translate(1470 1203)"/><g class="e" transform="translate(1486 1173)"><rect class="g" width="28" height="51" rx="5"/><rect class="h" x="1" y="1" width="26" height="49" rx="4"/></g><rect class="f" width="14" height="4" rx="2" transform="translate(1493 1173)"/><path class="d" d="M1414.067,1192.851h7.66l-3.471,6.375h3.471l-11.474,13.167,4.383-10.653h-4.383Z" transform="translate(84.011 -4.122)"/></g></svg>