<svg xmlns="http://www.w3.org/2000/svg" width="32.001" height="32.001" viewBox="0 0 32.001 32.001"><defs><style>.a{fill:#1da1f2;}</style></defs><g transform="translate(47.001 0)"><path class="a" d="M-14809-6464a15.9,15.9,0,0,1-11.317-4.688A15.9,15.9,0,0,1-14825-6480a15.892,15.892,0,0,1,4.686-11.312A15.9,15.9,0,0,1-14809-6496a15.894,15.894,0,0,1,11.313,4.686A15.892,15.892,0,0,1-14793-6480a15.9,15.9,0,0,1-4.686,11.314A15.89,15.89,0,0,1-14809-6464Zm-9.514-10.117a.277.277,0,0,0-.3.2.435.435,0,0,0,.251.459,14.636,14.636,0,0,0,5.972,1.31,12.348,12.348,0,0,0,4.866-.95,10.773,10.773,0,0,0,3.592-2.484,10.8,10.8,0,0,0,2.986-7.367v-.05c0-.026,0-.056,0-.089,0-.083,0-.189,0-.3a.184.184,0,0,1,0-.021c0-.011,0-.021,0-.03a.258.258,0,0,0,0-.039v-.013a.222.222,0,0,1,0-.026c0-.125-.008-.254-.012-.324a11.415,11.415,0,0,0,1.913-1.7.25.25,0,0,0,.049-.263.166.166,0,0,0-.153-.1.225.225,0,0,0-.074.013l-.3.106-.007,0a9.387,9.387,0,0,1-1.728.505,7.106,7.106,0,0,0,2.218-2.169.293.293,0,0,0,.032-.3.223.223,0,0,0-.2-.117.3.3,0,0,0-.131.032c-.117.055-.246.118-.383.185l-.109.053a13.183,13.183,0,0,1-2.354.986.23.23,0,0,0-.041.011l-.008,0-.025.009a4.387,4.387,0,0,0-3.1-1.276,4.422,4.422,0,0,0-4.416,4.417c0,.037,0,.083,0,.133v.012c0,.136-.006.265,0,.346a8.258,8.258,0,0,1-4.137-1.088,11.1,11.1,0,0,1-3.059-2.677.365.365,0,0,0-.271-.16.281.281,0,0,0-.258.223,8.883,8.883,0,0,0-.153,1.771c0,1.351,1.054,2.717,2.75,3.564a4.137,4.137,0,0,1-1,.134,2.94,2.94,0,0,1-1.313-.328.358.358,0,0,0-.163-.038.241.241,0,0,0-.2.084.333.333,0,0,0-.029.293,4.776,4.776,0,0,0,3.832,3.032,2.532,2.532,0,0,1-1.107.175l-.2,0h-.207c-.139,0-.605-.031-.9-.067a.9.9,0,0,0-.114-.007c-.1,0-.276.018-.34.137-.054.1-.017.248.111.439a5.077,5.077,0,0,0,3.944,1.894c-1.616,1.266-4.268,1.455-5.7,1.455Z" transform="translate(14778 6496)"/></g></svg>