<svg width="20" height="21" viewBox="0 0 20 21" fill="none" xmlns="http://www.w3.org/2000/svg">
<path d="M12.5 8.84979L16.2942 6.95312C16.4212 6.88965 16.5623 6.85969 16.7042 6.86608C16.846 6.87247 16.9839 6.915 17.1047 6.98963C17.2255 7.06426 17.3252 7.16852 17.3944 7.29252C17.4636 7.41651 17.4999 7.55613 17.5 7.69812V13.3348C17.4999 13.4768 17.4636 13.6164 17.3944 13.7404C17.3252 13.8644 17.2255 13.9687 17.1047 14.0433C16.9839 14.1179 16.846 14.1604 16.7042 14.1668C16.5623 14.1732 16.4212 14.1433 16.2942 14.0798L12.5 12.1831V8.84979Z" stroke="#CEA0E1" stroke-width="2" stroke-linecap="round" stroke-linejoin="round"/>
<path d="M2.5 7.18229C2.5 6.74026 2.67559 6.31634 2.98816 6.00378C3.30072 5.69122 3.72464 5.51563 4.16667 5.51562H10.8333C11.2754 5.51563 11.6993 5.69122 12.0118 6.00378C12.3244 6.31634 12.5 6.74026 12.5 7.18229V13.849C12.5 14.291 12.3244 14.7149 12.0118 15.0275C11.6993 15.34 11.2754 15.5156 10.8333 15.5156H4.16667C3.72464 15.5156 3.30072 15.34 2.98816 15.0275C2.67559 14.7149 2.5 14.291 2.5 13.849V7.18229Z" stroke="#CEA0E1" stroke-width="2" stroke-linecap="round" stroke-linejoin="round"/>
</svg>
